<svg xmlns="http://www.w3.org/2000/svg" viewBox="0 0 128 128">
  <!-- Fundo circular gradiente -->
  <defs>
    <linearGradient id="bgGradient" x1="0%" y1="0%" x2="100%" y2="100%">
      <stop offset="0%" stop-color="#6a11cb" />
      <stop offset="100%" stop-color="#2575fc" />
    </linearGradient>
    <linearGradient id="diffusionGradient" x1="0%" y1="0%" x2="100%" y2="100%">
      <stop offset="0%" stop-color="#FF6F91" />
      <stop offset="33%" stop-color="#FF9671" />
      <stop offset="66%" stop-color="#FFC75F" />
      <stop offset="100%" stop-color="#F9F871" />
    </linearGradient>
  </defs>
  
  <!-- Círculo de fundo -->
  <circle cx="64" cy="64" r="60" fill="url(#bgGradient)" />
  
  <!-- Estrutura neural central -->
  <g transform="translate(64, 64) scale(0.85) translate(-64, -64)">
    <!-- Nós da rede -->
    <circle cx="32" cy="30" r="6" fill="#ffffff" />
    <circle cx="32" cy="64" r="6" fill="#ffffff" />
    <circle cx="32" cy="98" r="6" fill="#ffffff" />
    
    <circle cx="64" cy="40" r="6" fill="#ffffff" />
    <circle cx="64" cy="64" r="6" fill="#ffffff" />
    <circle cx="64" cy="88" r="6" fill="#ffffff" />
    
    <circle cx="96" cy="30" r="6" fill="#ffffff" />
    <circle cx="96" cy="64" r="6" fill="#ffffff" />
    <circle cx="96" cy="98" r="6" fill="#ffffff" />
    
    <!-- Conexões da rede -->
    <line x1="32" y1="30" x2="64" y2="40" stroke="#ffffff" stroke-width="2" />
    <line x1="32" y1="30" x2="64" y2="64" stroke="#ffffff" stroke-width="2" />
    <line x1="32" y1="30" x2="64" y2="88" stroke="#ffffff" stroke-opacity="0.5" stroke-width="1.5" />
    
    <line x1="32" y1="64" x2="64" y2="40" stroke="#ffffff" stroke-opacity="0.5" stroke-width="1.5" />
    <line x1="32" y1="64" x2="64" y2="64" stroke="#ffffff" stroke-width="2" />
    <line x1="32" y1="64" x2="64" y2="88" stroke="#ffffff" stroke-width="2" />
    
    <line x1="32" y1="98" x2="64" y2="40" stroke="#ffffff" stroke-opacity="0.5" stroke-width="1.5" />
    <line x1="32" y1="98" x2="64" y2="64" stroke="#ffffff" stroke-width="2" />
    <line x1="32" y1="98" x2="64" y2="88" stroke="#ffffff" stroke-width="2" />
    
    <line x1="64" y1="40" x2="96" y2="30" stroke="#ffffff" stroke-width="2" />
    <line x1="64" y1="40" x2="96" y2="64" stroke="#ffffff" stroke-width="2" />
    <line x1="64" y1="40" x2="96" y2="98" stroke="#ffffff" stroke-opacity="0.5" stroke-width="1.5" />
    
    <line x1="64" y1="64" x2="96" y2="30" stroke="#ffffff" stroke-width="2" />
    <line x1="64" y1="64" x2="96" y2="64" stroke="#ffffff" stroke-width="2" />
    <line x1="64" y1="64" x2="96" y2="98" stroke="#ffffff" stroke-width="2" />
    
    <line x1="64" y1="88" x2="96" y2="30" stroke="#ffffff" stroke-opacity="0.5" stroke-width="1.5" />
    <line x1="64" y1="88" x2="96" y2="64" stroke="#ffffff" stroke-width="2" />
    <line x1="64" y1="88" x2="96" y2="98" stroke="#ffffff" stroke-width="2" />
  </g>
  
  <!-- Elemento Lora (letra L estilizada) -->
  <g transform="translate(64, 75) scale(0.6) translate(-24, -24)">
    <path d="M10,0 L10,40 L35,40 L35,30 L20,30 L20,0 Z" fill="url(#diffusionGradient)" />
  </g>
  
  <!-- Partículas de difusão -->
  <circle cx="93" cy="25" r="4" fill="#FF6F91" opacity="0.8">
    <animate attributeName="r" values="3;5;3" dur="3s" repeatCount="indefinite" />
  </circle>
  <circle cx="102" cy="42" r="3" fill="#FF9671" opacity="0.8">
    <animate attributeName="r" values="2;4;2" dur="2.5s" repeatCount="indefinite" />
  </circle>
  <circle cx="95" cy="105" r="3.5" fill="#FFC75F" opacity="0.8">
    <animate attributeName="r" values="2.5;4.5;2.5" dur="3.5s" repeatCount="indefinite" />
  </circle>
  <circle cx="26" cy="98" r="3" fill="#F9F871" opacity="0.8">
    <animate attributeName="r" values="2;4;2" dur="2.8s" repeatCount="indefinite" />
  </circle>
  <circle cx="20" cy="35" r="4" fill="#FF9671" opacity="0.8">
    <animate attributeName="r" values="3;5;3" dur="3.2s" repeatCount="indefinite" />
  </circle>
  
  <!-- Brilho ao redor do ícone -->
  <circle cx="64" cy="64" r="60" fill="none" stroke="white" stroke-width="1.5" opacity="0.3" />
</svg>
